<svg xmlns="http://www.w3.org/2000/svg" xmlns:xlink="http://www.w3.org/1999/xlink" width="1000" zoomAndPan="magnify" viewBox="0 0 750 749.999995" height="1000" preserveAspectRatio="xMidYMid meet"><defs><clipPath id="666dc294e8"><path d="M 75 75 L 675 75 L 675 675 L 75 675 Z M 75 75 "></path></clipPath></defs><g id="2d670d1264"><path style=" stroke:none;fill-rule:nonzero;fill:#eb6938;fill-opacity:1;" d="M 365 495 L 345 495 L 345 545 L 365 545 L 365 495 "></path><path style=" stroke:none;fill-rule:nonzero;fill:#eb6938;fill-opacity:1;" d="M 405 495 L 385 495 L 385 545 L 405 545 L 405 495 "></path><path style=" stroke:none;fill-rule:nonzero;fill:#eb6938;fill-opacity:1;" d="M 365 415 L 345 415 L 345 465 L 365 465 L 365 415 "></path><path style=" stroke:none;fill-rule:nonzero;fill:#eb6938;fill-opacity:1;" d="M 405 415 L 385 415 L 385 465 L 405 465 L 405 415 "></path><g clip-rule="nonzero" clip-path="url(#666dc294e8)"><path style=" stroke:none;fill-rule:nonzero;fill:#eb6938;fill-opacity:1;" d="M 645 655 L 445 655 L 445 585 L 645 585 Z M 445 505 L 595 505 L 595 565 L 445 565 Z M 445 445 L 559.648438 445 L 586.3125 485 L 445 485 Z M 615 405 L 635 405 L 635 565 L 615 565 Z M 615 345 L 635 345 L 635 385 L 615 385 Z M 625 291.398438 L 634.601562 325 L 615.398438 325 Z M 435 390.863281 L 425 400.863281 L 425 655 L 405 655 L 405 595 C 405 578.460938 391.539062 565 375 565 C 358.460938 565 345 578.460938 345 595 L 345 655 L 325 655 L 325 400.863281 L 315 390.863281 L 315 385 L 435 385 Z M 385 655 L 365 655 L 365 595 C 365 589.488281 369.488281 585 375 585 C 380.511719 585 385 589.488281 385 595 Z M 355 255 L 395 255 L 395 365 L 355 365 Z M 375 166.230469 L 392.1875 235 L 357.8125 235 Z M 305 485.003906 L 163.6875 485.003906 L 190.351562 445.003906 L 305 445.003906 Z M 305 565.003906 L 155 565.003906 L 155 505.003906 L 305 505.003906 Z M 305 655.003906 L 105 655.003906 L 105 585.003906 L 305 585.003906 Z M 115 405.003906 L 135 405.003906 L 135 565.003906 L 115 565.003906 Z M 115 345.003906 L 135 345.003906 L 135 385.003906 L 115 385.003906 Z M 125 291.40625 L 134.601562 325.003906 L 115.398438 325.003906 Z M 665 655.003906 L 665 565.003906 L 655 565.003906 L 655 405.003906 L 665 405.003906 L 665 385.003906 L 655 385.003906 L 655 345.003906 L 665 345.003906 L 665 325.003906 L 655 325.003906 L 655 323.605469 L 635 253.605469 L 635 215.003906 L 615 215.003906 L 615 253.605469 L 595 323.605469 L 595 325.003906 L 585 325.003906 L 585 345.003906 L 595 345.003906 L 595 385.003906 L 585 385.003906 L 585 405.003906 L 595 405.003906 L 595 461.980469 L 570.351562 425.003906 L 445 425.003906 L 445 409.140625 L 455 399.140625 L 455 315.003906 L 435 315.003906 L 435 365.003906 L 415 365.003906 L 415 243.78125 L 385 123.773438 L 385 75.003906 L 365 75.003906 L 365 123.773438 L 335 243.78125 L 335 365.003906 L 315 365.003906 L 315 315.003906 L 295 315.003906 L 295 399.140625 L 305 409.140625 L 305 425.003906 L 179.648438 425.003906 L 155 461.980469 L 155 405.003906 L 165 405.003906 L 165 385.003906 L 155 385.003906 L 155 345.003906 L 165 345.003906 L 165 325.003906 L 155 325.003906 L 155 323.605469 L 135 253.605469 L 135 215.003906 L 115 215.003906 L 115 253.605469 L 95 323.605469 L 95 325.003906 L 85 325.003906 L 85 345.003906 L 95 345.003906 L 95 385.003906 L 85 385.003906 L 85 405.003906 L 95 405.003906 L 95 565.003906 L 85 565.003906 L 85 655.003906 L 75 655.003906 L 75 675.003906 L 675 675.003906 L 675 655.003906 L 665 655.003906 "></path></g><path style=" stroke:none;fill-rule:nonzero;fill:#eb6938;fill-opacity:1;" d="M 495 605 L 475 605 L 475 635 L 495 635 L 495 605 "></path><path style=" stroke:none;fill-rule:nonzero;fill:#eb6938;fill-opacity:1;" d="M 535 605 L 515 605 L 515 635 L 535 635 L 535 605 "></path><path style=" stroke:none;fill-rule:nonzero;fill:#eb6938;fill-opacity:1;" d="M 575 605 L 555 605 L 555 635 L 575 635 L 575 605 "></path><path style=" stroke:none;fill-rule:nonzero;fill:#eb6938;fill-opacity:1;" d="M 615 605 L 595 605 L 595 635 L 615 635 L 615 605 "></path><path style=" stroke:none;fill-rule:nonzero;fill:#eb6938;fill-opacity:1;" d="M 475 545 L 495 545 L 495 525 L 475 525 L 475 545 "></path><path style=" stroke:none;fill-rule:nonzero;fill:#eb6938;fill-opacity:1;" d="M 515 545 L 535 545 L 535 525 L 515 525 L 515 545 "></path><path style=" stroke:none;fill-rule:nonzero;fill:#eb6938;fill-opacity:1;" d="M 555 545 L 575 545 L 575 525 L 555 525 L 555 545 "></path><path style=" stroke:none;fill-rule:nonzero;fill:#eb6938;fill-opacity:1;" d="M 275 605 L 255 605 L 255 635 L 275 635 L 275 605 "></path><path style=" stroke:none;fill-rule:nonzero;fill:#eb6938;fill-opacity:1;" d="M 235 605 L 215 605 L 215 635 L 235 635 L 235 605 "></path><path style=" stroke:none;fill-rule:nonzero;fill:#eb6938;fill-opacity:1;" d="M 195 605 L 175 605 L 175 635 L 195 635 L 195 605 "></path><path style=" stroke:none;fill-rule:nonzero;fill:#eb6938;fill-opacity:1;" d="M 155 605 L 135 605 L 135 635 L 155 635 L 155 605 "></path><path style=" stroke:none;fill-rule:nonzero;fill:#eb6938;fill-opacity:1;" d="M 275 525 L 255 525 L 255 545 L 275 545 L 275 525 "></path><path style=" stroke:none;fill-rule:nonzero;fill:#eb6938;fill-opacity:1;" d="M 235 525 L 215 525 L 215 545 L 235 545 L 235 525 "></path><path style=" stroke:none;fill-rule:nonzero;fill:#eb6938;fill-opacity:1;" d="M 195 525 L 175 525 L 175 545 L 195 545 L 195 525 "></path></g></svg>