<svg xmlns="http://www.w3.org/2000/svg" xmlns:xlink="http://www.w3.org/1999/xlink" width="1000" zoomAndPan="magnify" viewBox="0 0 750 749.999995" height="1000" preserveAspectRatio="xMidYMid meet"><g id="7a11bbf8ef"><path style=" stroke:none;fill-rule:evenodd;fill:#eb6938;fill-opacity:1;" d="M 308.269531 618.074219 L 235.351562 618.074219 C 231.144531 618.074219 227.734375 614.664062 227.734375 610.457031 L 227.734375 545.414062 C 227.734375 541.207031 231.144531 537.796875 235.351562 537.796875 L 308.269531 537.796875 C 312.476562 537.796875 315.886719 541.207031 315.886719 545.414062 L 315.886719 610.457031 C 315.886719 614.664062 312.476562 618.074219 308.269531 618.074219 Z M 242.96875 602.839844 L 300.652344 602.839844 L 300.652344 553.03125 L 242.96875 553.03125 Z M 242.96875 602.839844 "></path><path style=" stroke:none;fill-rule:evenodd;fill:#eb6938;fill-opacity:1;" d="M 514.648438 607.753906 L 419.714844 607.753906 C 415.507812 607.753906 412.101562 604.34375 412.101562 600.136719 L 412.101562 535.097656 C 412.101562 530.890625 415.507812 527.480469 419.714844 527.480469 L 514.648438 527.480469 C 518.855469 527.480469 522.265625 530.890625 522.265625 535.097656 L 522.265625 600.136719 C 522.265625 604.34375 518.855469 607.753906 514.648438 607.753906 Z M 427.332031 592.519531 L 507.03125 592.519531 L 507.03125 542.714844 L 427.332031 542.714844 Z M 427.332031 592.519531 "></path><path style=" stroke:none;fill-rule:evenodd;fill:#eb6938;fill-opacity:1;" d="M 339.921875 496.125 C 335.714844 496.125 332.304688 492.714844 332.304688 488.507812 L 332.304688 373.675781 L 291.125 373.675781 L 291.125 488.507812 C 291.125 492.714844 287.714844 496.125 283.507812 496.125 C 279.300781 496.125 275.890625 492.714844 275.890625 488.507812 L 275.890625 366.058594 C 275.890625 361.851562 279.300781 358.441406 283.507812 358.441406 L 339.921875 358.441406 C 344.128906 358.441406 347.539062 361.851562 347.539062 366.058594 L 347.539062 488.507812 C 347.539062 492.714844 344.128906 496.125 339.921875 496.125 Z M 339.921875 496.125 "></path><path style=" stroke:none;fill-rule:evenodd;fill:#eb6938;fill-opacity:1;" d="M 420.75 214.074219 L 352.644531 214.074219 C 348.4375 214.074219 345.027344 210.667969 345.027344 206.460938 L 345.03125 185.132812 C 345.03125 180.921875 348.4375 177.515625 352.644531 177.515625 L 420.75 177.515625 C 424.957031 177.515625 428.367188 180.921875 428.367188 185.132812 L 428.367188 206.460938 C 428.367188 210.667969 424.957031 214.074219 420.75 214.074219 Z M 360.261719 198.84375 L 413.132812 198.84375 L 413.132812 192.746094 L 360.261719 192.746094 Z M 360.261719 198.84375 "></path><path style=" stroke:none;fill-rule:evenodd;fill:#eb6938;fill-opacity:1;" d="M 403.550781 192.746094 L 369.84375 192.746094 C 365.636719 192.746094 362.226562 189.335938 362.226562 185.132812 L 362.226562 168.277344 C 362.226562 154.785156 373.203125 143.808594 386.695312 143.808594 C 400.195312 143.808594 411.167969 154.785156 411.167969 168.277344 L 411.167969 185.132812 C 411.167969 189.335938 407.757812 192.746094 403.550781 192.746094 Z M 377.460938 177.515625 L 395.9375 177.515625 L 395.9375 168.277344 C 395.9375 163.183594 391.792969 159.042969 386.703125 159.042969 C 381.605469 159.042969 377.460938 163.183594 377.460938 168.277344 Z M 377.460938 177.515625 "></path><path style=" stroke:none;fill-rule:evenodd;fill:#eb6938;fill-opacity:1;" d="M 386.699219 159.042969 C 382.492188 159.042969 379.082031 155.632812 379.082031 151.425781 L 379.082031 82.628906 C 379.082031 78.421875 382.492188 75.011719 386.699219 75.011719 C 390.90625 75.011719 394.316406 78.421875 394.316406 82.628906 L 394.316406 151.425781 C 394.316406 155.632812 390.90625 159.042969 386.699219 159.042969 Z M 386.699219 159.042969 "></path><path style=" stroke:none;fill-rule:evenodd;fill:#eb6938;fill-opacity:1;" d="M 308.269531 674.988281 L 235.351562 674.988281 C 231.144531 674.988281 227.734375 671.578125 227.734375 667.367188 L 227.734375 488.507812 C 227.734375 484.300781 231.144531 480.890625 235.351562 480.890625 L 308.269531 480.890625 C 312.476562 480.890625 315.886719 484.300781 315.886719 488.507812 L 315.886719 667.367188 C 315.886719 671.578125 312.476562 674.988281 308.269531 674.988281 Z M 242.96875 659.753906 L 300.652344 659.753906 L 300.652344 496.125 L 242.96875 496.125 Z M 242.96875 659.753906 "></path><path style=" stroke:none;fill-rule:evenodd;fill:#eb6938;fill-opacity:1;" d="M 380.5 674.984375 L 339.921875 674.984375 C 335.714844 674.984375 332.304688 671.574219 332.304688 667.367188 L 332.304688 206.460938 C 332.304688 202.253906 335.714844 198.84375 339.921875 198.84375 L 433.476562 198.84375 C 437.683594 198.84375 441.09375 202.253906 441.09375 206.460938 L 441.09375 327.535156 C 441.09375 331.738281 437.683594 335.152344 433.476562 335.152344 L 388.121094 335.152344 L 388.121094 667.367188 C 388.121094 671.574219 384.710938 674.984375 380.503906 674.984375 Z M 347.539062 659.75 L 372.886719 659.75 L 372.886719 327.53125 C 372.886719 323.324219 376.296875 319.914062 380.503906 319.914062 L 425.859375 319.914062 L 425.859375 214.074219 L 347.539062 214.074219 Z M 347.539062 659.75 "></path><path style=" stroke:none;fill-rule:evenodd;fill:#eb6938;fill-opacity:1;" d="M 419.714844 674.984375 L 380.5 674.984375 C 376.296875 674.984375 372.886719 671.574219 372.886719 667.367188 L 372.886719 327.535156 C 372.886719 323.324219 376.296875 319.914062 380.5 319.914062 L 450.671875 319.914062 C 454.878906 319.914062 458.289062 323.324219 458.289062 327.535156 L 458.289062 467.871094 C 458.289062 472.078125 454.878906 475.488281 450.671875 475.488281 L 427.332031 475.488281 L 427.332031 667.367188 C 427.332031 671.574219 423.921875 674.984375 419.714844 674.984375 Z M 388.121094 659.75 L 412.101562 659.75 L 412.101562 467.871094 C 412.101562 463.664062 415.507812 460.253906 419.714844 460.253906 L 443.054688 460.253906 L 443.054688 335.152344 L 388.121094 335.152344 Z M 388.121094 659.75 "></path><path style=" stroke:none;fill-rule:evenodd;fill:#eb6938;fill-opacity:1;" d="M 514.648438 674.984375 L 419.71875 674.984375 C 415.507812 674.984375 412.101562 671.574219 412.101562 667.371094 L 412.101562 467.871094 C 412.101562 463.664062 415.507812 460.253906 419.71875 460.253906 L 514.648438 460.253906 C 518.855469 460.253906 522.265625 463.664062 522.265625 467.871094 L 522.265625 667.371094 C 522.265625 671.574219 518.855469 674.984375 514.648438 674.984375 Z M 427.332031 659.753906 L 507.03125 659.753906 L 507.03125 475.488281 L 427.332031 475.488281 Z M 427.332031 659.753906 "></path><path style=" stroke:none;fill-rule:evenodd;fill:#eb6938;fill-opacity:1;" d="M 578.308594 674.984375 L 171.695312 674.984375 C 167.488281 674.984375 164.078125 671.574219 164.078125 667.367188 C 164.078125 663.160156 167.488281 659.75 171.695312 659.75 L 578.308594 659.75 C 582.515625 659.75 585.925781 663.160156 585.925781 667.367188 C 585.925781 671.574219 582.515625 674.984375 578.308594 674.984375 Z M 578.308594 674.984375 "></path></g></svg>