<svg xmlns="http://www.w3.org/2000/svg" xmlns:xlink="http://www.w3.org/1999/xlink" width="1000" zoomAndPan="magnify" viewBox="0 0 750 749.999995" height="1000" preserveAspectRatio="xMidYMid meet"><defs><clipPath id="50efc55a97"><path d="M 227.625 76 L 518 76 L 518 675 L 227.625 675 Z M 227.625 76 "></path></clipPath></defs><g id="297cff97bd"><g clip-rule="nonzero" clip-path="url(#50efc55a97)"><path style=" stroke:none;fill-rule:nonzero;fill:#eb6938;fill-opacity:1;" d="M 506.703125 274.945312 L 505.640625 272.167969 C 502.808594 264.734375 503.113281 258.769531 503.617188 247.898438 C 504.375 230.960938 505.539062 205.328125 494.820312 154.316406 C 484.152344 103.757812 420.652344 85.003906 393.808594 79.289062 L 384.101562 77.214844 L 384 77.570312 C 379.449219 76.964844 374.796875 76.457031 369.945312 76.304688 C 369.792969 76.304688 359.023438 76.15625 351.59375 80.199219 C 350.277344 80.25 348.960938 80.554688 347.699219 81.058594 C 342.945312 82.878906 339.558594 87.175781 338.851562 92.230469 C 337.992188 98.398438 335.867188 103.253906 333.542969 104.566406 C 331.824219 105.527344 328.738281 106.238281 325.199219 107.046875 C 313.773438 109.675781 296.839844 113.566406 280.558594 135.15625 C 270.546875 136.46875 248.757812 141.019531 238.140625 155.582031 C 232.429688 163.417969 230.757812 172.972656 233.339844 183.285156 C 237.636719 200.578125 242.488281 209.121094 250.023438 212.863281 C 257.65625 216.652344 264.785156 213.570312 269.488281 211.546875 C 270.597656 211.042969 271.761719 210.535156 272.671875 210.234375 C 276.464844 209.476562 287.738281 212.40625 294.5625 215.695312 C 289.859375 217.160156 284.097656 217.765625 278.839844 218.324219 C 268.375 219.433594 257.554688 220.597656 253.003906 229.546875 C 248.65625 238.039062 253.8125 246.988281 255.480469 249.921875 C 262.710938 262.507812 270.546875 269.335938 280.054688 271.558594 C 271.054688 292.894531 266.097656 313.269531 265.1875 332.378906 C 256.039062 330.105469 247.292969 329.851562 241.074219 330.558594 L 227.625 332.128906 L 232.882812 344.5625 C 265.59375 422.171875 257.910156 475.863281 257.808594 476.722656 L 257.808594 476.773438 C 257.808594 476.824219 257.757812 476.875 257.757812 476.921875 C 244.863281 536.480469 246.179688 579 261.597656 603.519531 L 232.074219 603.519531 L 232.074219 674.503906 L 499.777344 674.503906 L 499.777344 603.519531 L 471.765625 603.519531 C 515.800781 542.09375 505.183594 451.039062 498.15625 413.222656 L 500.636719 413.929688 L 494.316406 395.527344 C 485.621094 370.195312 479.601562 349.367188 475.40625 331.621094 C 481.070312 332.835938 487.792969 333.996094 495.378906 334.605469 C 496.238281 334.65625 497.046875 334.707031 497.855469 334.707031 C 506.296875 334.707031 511 330.914062 513.527344 327.527344 C 522.324219 315.847656 514.742188 295.980469 506.703125 274.945312 Z M 451.292969 314.582031 C 451.542969 316.101562 451.847656 317.667969 452.152344 319.285156 L 453.210938 324.847656 L 453.3125 324.898438 C 456.75 341.53125 461.757812 360.742188 469.136719 383.746094 L 408.519531 366.152344 C 406.144531 357.859375 401.695312 338.75 400.683594 311.246094 C 400.683594 308.011719 400.785156 304.726562 400.886719 301.335938 C 400.9375 300.226562 400.734375 299.113281 400.480469 298.050781 C 400.480469 295.675781 400.53125 293.351562 400.582031 290.871094 C 400.582031 290.671875 400.582031 290.417969 400.582031 290.164062 C 400.632812 289.203125 400.683594 288.140625 400.734375 287.132812 C 401.136719 279.144531 402.453125 265.039062 405.636719 240.617188 C 407.660156 227.171875 409.429688 215.085938 410.792969 204.21875 C 411.351562 200.527344 411.90625 196.734375 412.511719 192.742188 C 415.09375 175.804688 415.496094 161.34375 414.332031 149.007812 C 413.574219 134.042969 410.59375 123.121094 404.828125 114.175781 C 402.300781 109.21875 399.417969 104.871094 396.285156 101.179688 C 405.941406 104.820312 422.726562 113.265625 433.648438 129.847656 C 438.652344 138.441406 442.34375 149.160156 444.113281 162.457031 C 446.132812 196.632812 447.347656 218.878906 446.691406 241.226562 C 446.082031 262.507812 445.984375 283.894531 451.242188 313.875 Z M 394.515625 157.90625 C 394.414062 168.523438 393.25 181.769531 391.179688 198.453125 C 388.851562 213.824219 387.03125 226.867188 385.566406 237.988281 C 385.210938 240.316406 384.859375 242.589844 384.503906 245.015625 C 381.976562 261.398438 380.761719 276.414062 380.359375 290.113281 C 380.308594 291.074219 380.308594 291.933594 380.308594 292.691406 L 376.921875 294.359375 L 352.90625 306.191406 C 352.402344 300.175781 351.894531 292.488281 351.742188 283.945312 C 351.691406 271.003906 352.300781 260.285156 353.210938 251.640625 C 354.472656 240.566406 356.699219 229.394531 360.339844 219.234375 C 368.277344 205.785156 375 187.734375 379.144531 162.050781 C 382.28125 142.535156 381.824219 127.519531 379.550781 115.945312 C 382.027344 117.914062 384.203125 120.089844 386.070312 122.464844 C 391.027344 131.871094 393.910156 143.800781 394.515625 157.90625 Z M 272.976562 239.859375 C 272.925781 239.757812 272.875 239.65625 272.773438 239.554688 C 275.25 239.101562 278.484375 238.746094 280.964844 238.496094 C 289.761719 237.535156 300.679688 236.371094 309.578125 231.113281 C 319.792969 225.046875 320.347656 216.097656 317.667969 210.285156 C 311.195312 196.128906 278.636719 186.976562 266.503906 191.019531 C 264.785156 191.578125 263.066406 192.335938 261.449219 193.042969 C 260.640625 193.398438 259.527344 193.902344 258.667969 194.207031 C 257.65625 192.691406 255.480469 188.59375 252.953125 178.433594 C 251.488281 172.566406 253.105469 169.433594 254.472656 167.5625 C 260.992188 158.5625 280.507812 155.277344 286.828125 154.871094 L 291.730469 154.570312 L 294.511719 150.523438 C 307.152344 132.070312 319.183594 129.289062 329.75 126.863281 C 334.65625 125.75 339.257812 124.691406 343.503906 122.261719 C 348.203125 119.632812 351.84375 115.386719 354.574219 109.875 C 365.292969 137.734375 353.816406 177.824219 341.835938 210.839844 C 340.417969 213.0625 338.953125 215.136719 337.4375 217.058594 C 327.476562 228.382812 305.988281 242.894531 292.136719 250.882812 C 289.050781 252.042969 286.574219 252.398438 284.601562 251.941406 C 280.964844 251.03125 277.070312 246.988281 272.976562 239.859375 Z M 285.160156 340.875 C 284.753906 318.933594 291.175781 293.855469 303.917969 267.71875 C 308.464844 265.542969 312.8125 262.863281 316.859375 260.082031 C 318.375 259.070312 319.890625 258.0625 321.460938 257 C 325.148438 254.570312 329.042969 251.992188 332.9375 249.113281 C 332.683594 251.488281 332.480469 253.964844 332.277344 256.644531 C 331.519531 266 331.269531 275.046875 331.367188 283.339844 C 331.417969 298.457031 332.277344 316.304688 334.402344 337.4375 L 301.386719 357.40625 C 301.289062 357.253906 301.136719 357.101562 301.035156 356.902344 C 300.679688 356.34375 300.226562 355.789062 299.871094 355.230469 C 299.164062 354.222656 298.40625 353.160156 297.648438 352.199219 C 297.445312 351.996094 297.242188 351.792969 297.089844 351.542969 C 294.160156 348.054688 290.769531 344.96875 286.980469 342.289062 C 286.574219 342.035156 286.222656 341.734375 285.816406 341.429688 C 285.613281 341.175781 285.414062 341.023438 285.160156 340.875 Z M 257.351562 351.390625 C 261.144531 352.046875 265.289062 353.261719 269.386719 355.179688 L 270.75 355.890625 C 272.316406 356.699219 273.734375 357.609375 275.097656 358.519531 C 275.707031 358.972656 276.3125 359.429688 276.867188 359.882812 C 277.574219 360.441406 278.234375 360.996094 278.890625 361.652344 C 279.648438 362.359375 280.40625 363.167969 281.113281 364.027344 C 281.570312 364.535156 282.023438 365.039062 282.429688 365.597656 C 283.136719 366.507812 283.742188 367.46875 284.402344 368.476562 C 284.804688 369.136719 285.210938 369.792969 285.5625 370.5 C 286.371094 371.964844 287.132812 373.535156 287.738281 375.253906 L 290.71875 382.785156 L 298.707031 381.722656 C 298.910156 381.722656 299.871094 381.574219 301.386719 381.671875 C 301.4375 381.671875 301.488281 381.671875 301.539062 381.671875 C 304.574219 381.875 309.578125 382.785156 315.34375 386.171875 C 315.492188 386.273438 315.59375 386.324219 315.746094 386.425781 C 316.402344 386.832031 317.0625 387.285156 317.769531 387.742188 C 318.074219 387.941406 318.375 388.144531 318.679688 388.398438 C 319.285156 388.851562 319.941406 389.359375 320.601562 389.863281 C 321.003906 390.167969 321.359375 390.519531 321.761719 390.875 C 322.371094 391.378906 322.976562 391.9375 323.582031 392.492188 C 324.390625 393.300781 325.25 394.160156 326.058594 395.070312 C 326.617188 395.679688 327.121094 396.335938 327.679688 396.941406 C 328.285156 397.699219 328.890625 398.40625 329.546875 399.21875 C 330.003906 399.773438 330.457031 400.429688 330.863281 401.035156 C 331.46875 401.898438 332.128906 402.804688 332.734375 403.765625 C 333.136719 404.425781 333.542969 405.03125 333.996094 405.738281 C 334.707031 406.902344 335.414062 408.113281 336.070312 409.429688 C 336.375 409.984375 336.675781 410.542969 337.03125 411.148438 C 338.042969 413.121094 339.054688 415.242188 340.066406 417.46875 L 341.933594 421.664062 L 346.285156 423.082031 C 346.636719 423.179688 347.09375 423.382812 347.546875 423.535156 C 348.003906 423.6875 348.558594 423.941406 349.164062 424.242188 C 349.265625 424.292969 349.316406 424.292969 349.367188 424.34375 C 349.871094 424.597656 350.480469 424.898438 351.136719 425.203125 C 351.441406 425.355469 351.792969 425.558594 352.097656 425.710938 C 352.5 425.910156 352.957031 426.214844 353.363281 426.46875 C 353.917969 426.820312 354.472656 427.175781 355.082031 427.527344 C 355.332031 427.679688 355.585938 427.882812 355.839844 428.085938 C 356.546875 428.589844 357.203125 429.097656 357.859375 429.652344 C 358.0625 429.804688 358.265625 430.007812 358.417969 430.15625 C 359.074219 430.765625 359.730469 431.371094 360.339844 431.976562 C 360.589844 432.28125 360.84375 432.636719 361.097656 432.9375 C 361.550781 433.496094 362.058594 434.050781 362.460938 434.707031 C 363.117188 435.71875 363.675781 436.730469 364.128906 437.84375 C 364.382812 438.550781 364.636719 439.308594 364.789062 440.066406 C 364.835938 440.269531 364.835938 440.472656 364.886719 440.675781 C 364.988281 441.230469 365.089844 441.785156 365.140625 442.394531 C 365.191406 442.695312 365.140625 443.050781 365.140625 443.402344 C 365.140625 443.910156 365.191406 444.363281 365.140625 444.871094 C 365.140625 445.273438 365.039062 445.679688 364.988281 446.035156 C 364.9375 446.488281 364.886719 446.941406 364.835938 447.449219 C 364.789062 447.851562 364.636719 448.308594 364.535156 448.761719 C 364.433594 449.21875 364.332031 449.671875 364.179688 450.179688 C 364.027344 450.632812 363.878906 451.140625 363.726562 451.59375 C 363.574219 452.050781 363.421875 452.554688 363.21875 453.011719 C 363.019531 453.515625 362.816406 454.019531 362.613281 454.527344 C 362.410156 455.03125 362.207031 455.488281 361.957031 455.992188 C 361.703125 456.5 361.449219 457.003906 361.199219 457.558594 C 360.84375 458.21875 360.488281 458.925781 360.136719 459.632812 L 354.828125 468.9375 L 364.433594 473.6875 C 364.738281 473.839844 365.039062 474.042969 365.34375 474.195312 C 366.960938 475.105469 368.476562 476.0625 369.84375 477.125 C 369.894531 477.175781 369.945312 477.175781 369.996094 477.226562 C 370.550781 477.632812 371.054688 478.085938 371.613281 478.492188 C 371.816406 478.691406 372.066406 478.84375 372.269531 479.046875 C 372.625 479.351562 372.976562 479.703125 373.332031 480.007812 C 373.585938 480.261719 373.835938 480.511719 374.089844 480.765625 C 374.394531 481.070312 374.644531 481.371094 374.898438 481.675781 C 375.101562 481.929688 375.304688 482.183594 375.503906 482.433594 C 375.707031 482.738281 375.960938 482.992188 376.113281 483.292969 C 376.316406 483.597656 376.414062 483.851562 376.566406 484.101562 C 376.667969 484.355469 376.820312 484.558594 376.921875 484.8125 C 377.074219 485.265625 377.175781 485.671875 377.222656 486.074219 C 377.222656 486.125 377.273438 486.175781 377.273438 486.226562 C 377.273438 486.378906 377.222656 486.582031 377.175781 486.78125 C 377.125 486.933594 377.175781 487.035156 377.125 487.1875 C 377.125 487.238281 377.074219 487.339844 377.023438 487.390625 C 376.617188 488.449219 375.757812 489.714844 374.191406 491.230469 C 371.664062 489.058594 368.378906 486.832031 364.484375 484.910156 C 364.382812 484.863281 364.28125 484.8125 364.179688 484.710938 C 364.027344 484.660156 363.878906 484.660156 363.777344 484.558594 C 360.539062 483.042969 356.902344 481.726562 352.753906 480.96875 C 350.125 480.511719 347.445312 480.261719 344.765625 480.261719 C 336.121094 480.261719 327.171875 482.6875 317.972656 487.492188 C 315.242188 482.230469 311.144531 476.417969 305.078125 471.917969 C 304.828125 471.765625 304.625 471.566406 304.371094 471.414062 C 303.917969 471.109375 303.460938 470.804688 303.007812 470.503906 C 302.5 470.148438 301.996094 469.847656 301.4375 469.542969 C 301.238281 469.441406 301.085938 469.289062 300.882812 469.1875 C 300.78125 469.136719 300.628906 469.085938 300.527344 469.035156 C 299.113281 468.277344 297.597656 467.570312 295.980469 467.015625 C 295.777344 466.964844 295.574219 466.863281 295.371094 466.8125 C 293.804688 466.308594 292.238281 465.800781 290.46875 465.496094 C 290.417969 465.496094 290.367188 465.449219 290.265625 465.449219 C 288.699219 465.144531 287.03125 464.992188 285.3125 464.890625 C 284.855469 464.890625 284.402344 464.839844 283.996094 464.839844 C 282.328125 464.789062 280.609375 464.839844 278.839844 465.042969 C 278.839844 465.042969 278.789062 465.042969 278.789062 465.042969 C 279.445312 444.515625 277.121094 403.96875 257.351562 351.390625 Z M 348.863281 500.785156 C 351.339844 513.679688 350.582031 523.488281 346.636719 528.441406 C 344.160156 531.527344 340.117188 533.144531 334.554688 533.144531 C 331.925781 533.144531 330.105469 532.4375 328.589844 530.765625 C 324.339844 526.167969 322.976562 515.953125 322.976562 508.167969 C 332.429688 502.050781 341.125 499.625 348.863281 500.785156 Z M 479.554688 654.28125 L 252.296875 654.28125 L 252.296875 623.742188 L 479.554688 623.742188 Z M 445.730469 603.519531 L 291.832031 603.519531 C 290.671875 603.316406 285.160156 601.953125 279.851562 594.570312 C 272.316406 584.003906 262.054688 555.996094 276.414062 486.125 C 276.566406 486.074219 276.765625 486.023438 276.917969 485.972656 C 277.324219 485.871094 277.675781 485.820312 278.082031 485.769531 C 279.394531 485.519531 280.660156 485.316406 281.824219 485.265625 C 282.226562 485.214844 282.632812 485.214844 283.035156 485.214844 C 284.402344 485.214844 285.664062 485.265625 286.929688 485.519531 C 287.03125 485.519531 287.132812 485.519531 287.230469 485.570312 C 288.546875 485.871094 289.761719 486.328125 290.871094 486.882812 C 291.125 486.984375 291.378906 487.136719 291.582031 487.238281 C 292.339844 487.691406 293.097656 488.148438 293.804688 488.703125 C 293.804688 488.703125 293.855469 488.753906 293.855469 488.753906 C 294.664062 489.410156 295.421875 490.121094 296.078125 490.929688 C 296.078125 490.929688 296.128906 490.980469 296.128906 490.980469 C 296.585938 491.484375 296.988281 492.039062 297.394531 492.597656 C 299.417969 495.679688 301.1875 499.472656 302.753906 503.972656 C 302.296875 512.261719 302.550781 532.488281 313.671875 544.519531 C 319.03125 550.332031 326.261719 553.417969 334.503906 553.417969 C 346.132812 553.417969 356.039062 549.070312 362.359375 541.132812 C 367.0625 535.214844 369.640625 527.480469 370.246094 518.230469 L 378.386719 513.324219 C 378.742188 513.121094 378.992188 512.921875 379.347656 512.71875 C 379.449219 512.667969 379.550781 512.617188 379.652344 512.566406 C 380.308594 512.164062 380.863281 511.707031 381.523438 511.304688 C 382.179688 510.847656 382.835938 510.445312 383.441406 509.988281 C 384.253906 509.382812 384.960938 508.824219 385.667969 508.21875 C 386.222656 507.765625 386.78125 507.308594 387.285156 506.855469 C 387.941406 506.246094 388.550781 505.640625 389.15625 504.984375 C 389.609375 504.527344 390.117188 504.074219 390.519531 503.566406 C 391.078125 502.960938 391.53125 502.304688 392.039062 501.644531 C 392.390625 501.140625 392.847656 500.6875 393.148438 500.179688 C 393.605469 499.523438 393.960938 498.867188 394.3125 498.15625 C 394.617188 497.652344 394.917969 497.199219 395.171875 496.691406 C 395.578125 495.882812 395.878906 495.023438 396.183594 494.164062 C 396.386719 493.558594 396.589844 492.898438 396.789062 492.292969 C 397.042969 491.332031 397.296875 490.371094 397.398438 489.359375 C 397.449219 488.90625 397.449219 488.449219 397.449219 487.996094 C 397.5 487.238281 397.597656 486.480469 397.546875 485.671875 C 397.546875 485.621094 397.546875 485.570312 397.546875 485.519531 C 397.546875 485.46875 397.546875 485.417969 397.546875 485.367188 C 397.5 484.761719 397.398438 484.203125 397.296875 483.597656 C 397.195312 482.890625 397.144531 482.132812 397.042969 481.472656 C 396.941406 480.96875 396.738281 480.511719 396.636719 480.058594 C 396.4375 479.25 396.234375 478.441406 395.929688 477.683594 C 395.828125 477.378906 395.679688 477.125 395.578125 476.875 C 395.171875 475.964844 394.769531 475.003906 394.261719 474.144531 C 394.210938 474.09375 394.210938 474.042969 394.160156 473.992188 C 391.683594 469.59375 388.144531 465.902344 384.605469 462.96875 C 383.746094 462.210938 382.835938 461.554688 381.976562 460.898438 C 383.542969 456.902344 384.554688 453.011719 385.0625 449.21875 C 385.0625 449.167969 385.0625 449.117188 385.113281 449.015625 C 385.261719 448.003906 385.3125 446.992188 385.363281 445.984375 C 385.363281 445.730469 385.414062 445.476562 385.414062 445.171875 C 385.464844 444.3125 385.414062 443.453125 385.363281 442.59375 C 385.363281 442.191406 385.363281 441.785156 385.363281 441.433594 C 385.3125 440.675781 385.210938 439.964844 385.113281 439.257812 C 385.0625 438.753906 385.011719 438.246094 384.910156 437.742188 C 384.808594 437.136719 384.65625 436.527344 384.503906 435.921875 C 384.351562 435.316406 384.253906 434.707031 384.101562 434.152344 C 383.949219 433.597656 383.746094 433.089844 383.59375 432.535156 C 383.390625 431.925781 383.242188 431.320312 382.988281 430.714844 C 382.988281 430.664062 382.9375 430.664062 382.9375 430.613281 C 382.9375 430.5625 382.886719 430.511719 382.886719 430.460938 C 382.53125 429.601562 382.128906 428.84375 381.722656 428.085938 C 381.320312 427.226562 380.964844 426.367188 380.511719 425.558594 C 379.953125 424.597656 379.347656 423.789062 378.742188 422.929688 C 378.335938 422.320312 377.984375 421.714844 377.527344 421.160156 C 376.667969 420.046875 375.757812 419.035156 374.796875 418.023438 C 374.59375 417.820312 374.394531 417.519531 374.191406 417.316406 C 368.226562 411.300781 361.300781 407.609375 356.800781 405.6875 C 355.585938 403.160156 354.371094 400.835938 353.109375 398.558594 C 352.90625 398.15625 352.652344 397.800781 352.453125 397.398438 C 351.339844 395.476562 350.226562 393.707031 349.113281 391.988281 C 348.960938 391.734375 348.8125 391.480469 348.609375 391.28125 C 340.519531 379.296875 331.671875 372.066406 323.582031 367.769531 L 355.890625 348.203125 L 355.179688 341.886719 C 355.179688 341.835938 355.179688 341.785156 355.179688 341.734375 L 354.675781 327.980469 L 380.257812 315.394531 C 380.257812 337.484375 382.28125 365.699219 391.28125 379.195312 L 392.644531 382.835938 L 476.113281 407.054688 C 481.625 431.878906 501.746094 543.914062 445.730469 603.519531 Z M 497.046875 314.433594 C 485.820312 313.523438 476.570312 311.246094 471.007812 309.679688 C 469.796875 299.519531 467.773438 278.03125 466.863281 241.832031 C 466.914062 240.011719 466.964844 238.140625 467.015625 236.320312 C 467.671875 214.785156 468.328125 192.488281 464.132812 160.179688 C 464.132812 160.128906 464.132812 160.082031 464.132812 160.03125 C 463.324219 147.945312 460.441406 137.582031 456.246094 128.683594 C 465.398438 136.621094 472.476562 146.429688 475.003906 158.460938 C 485.214844 206.996094 484.101562 231.0625 483.394531 246.988281 C 482.839844 258.769531 482.433594 268.019531 486.730469 279.34375 L 487.792969 282.175781 C 491.332031 291.480469 497.703125 308.113281 497.296875 314.484375 C 497.246094 314.433594 497.148438 314.433594 497.046875 314.433594 Z M 497.046875 314.433594 "></path></g></g></svg>