<svg xmlns="http://www.w3.org/2000/svg" xmlns:xlink="http://www.w3.org/1999/xlink" width="1000" zoomAndPan="magnify" viewBox="0 0 750 749.999995" height="1000" preserveAspectRatio="xMidYMid meet"><defs><clipPath id="38cac1052e"><path d="M 108 75 L 641 75 L 641 675 L 108 675 Z M 108 75 "></path></clipPath></defs><g id="0e4f14380c"><path style=" stroke:none;fill-rule:nonzero;fill:#eb6938;fill-opacity:1;" d="M 441.082031 165.910156 L 309.570312 165.910156 C 308.875 165.917969 308.1875 165.996094 307.503906 166.140625 C 306.820312 166.285156 306.160156 166.496094 305.519531 166.769531 C 304.878906 167.042969 304.269531 167.378906 303.695312 167.769531 C 303.121094 168.160156 302.585938 168.605469 302.097656 169.101562 C 301.609375 169.597656 301.171875 170.136719 300.789062 170.71875 C 300.402344 171.300781 300.078125 171.914062 299.816406 172.558594 C 299.550781 173.203125 299.351562 173.867188 299.21875 174.550781 C 299.082031 175.234375 299.015625 175.925781 299.015625 176.625 C 299.015625 177.320312 299.082031 178.011719 299.21875 178.695312 C 299.351562 179.378906 299.550781 180.042969 299.816406 180.6875 C 300.078125 181.332031 300.402344 181.945312 300.789062 182.527344 C 301.171875 183.109375 301.609375 183.648438 302.097656 184.144531 C 302.585938 184.640625 303.121094 185.085938 303.695312 185.476562 C 304.269531 185.871094 304.878906 186.203125 305.519531 186.476562 C 306.160156 186.75 306.820312 186.960938 307.503906 187.105469 C 308.1875 187.25 308.875 187.328125 309.570312 187.335938 L 441.082031 187.335938 C 441.78125 187.328125 442.46875 187.25 443.152344 187.105469 C 443.832031 186.960938 444.492188 186.75 445.136719 186.476562 C 445.777344 186.203125 446.382812 185.871094 446.960938 185.476562 C 447.535156 185.085938 448.066406 184.640625 448.558594 184.144531 C 449.046875 183.648438 449.484375 183.109375 449.867188 182.527344 C 450.25 181.945312 450.574219 181.332031 450.839844 180.6875 C 451.101562 180.042969 451.304688 179.378906 451.4375 178.695312 C 451.574219 178.011719 451.640625 177.320312 451.640625 176.625 C 451.640625 175.925781 451.574219 175.234375 451.4375 174.550781 C 451.304688 173.867188 451.101562 173.203125 450.839844 172.558594 C 450.574219 171.914062 450.25 171.300781 449.867188 170.71875 C 449.484375 170.136719 449.046875 169.597656 448.558594 169.101562 C 448.066406 168.605469 447.535156 168.160156 446.960938 167.769531 C 446.382812 167.378906 445.777344 167.042969 445.136719 166.769531 C 444.492188 166.496094 443.832031 166.285156 443.152344 166.140625 C 442.46875 165.996094 441.78125 165.917969 441.082031 165.910156 Z M 441.082031 165.910156 "></path><path style=" stroke:none;fill-rule:nonzero;fill:#eb6938;fill-opacity:1;" d="M 534.519531 426.671875 C 535.6875 426.660156 536.847656 426.59375 538.007812 426.464844 C 539.167969 426.339844 540.316406 426.160156 541.460938 425.921875 C 542.601562 425.683594 543.730469 425.390625 544.84375 425.042969 C 545.957031 424.695312 547.050781 424.296875 548.125 423.839844 C 549.199219 423.386719 550.246094 422.882812 551.273438 422.324219 C 552.296875 421.765625 553.292969 421.160156 554.257812 420.507812 C 555.222656 419.855469 556.152344 419.152344 557.050781 418.410156 C 557.949219 417.664062 558.808594 416.878906 559.628906 416.046875 C 560.449219 415.21875 561.226562 414.351562 561.960938 413.449219 C 562.699219 412.542969 563.386719 411.605469 564.03125 410.632812 C 564.675781 409.660156 565.273438 408.660156 565.820312 407.628906 C 566.367188 406.597656 566.859375 405.542969 567.304688 404.464844 C 567.746094 403.386719 568.136719 402.289062 568.472656 401.171875 C 568.808594 400.054688 569.089844 398.925781 569.316406 397.78125 C 569.542969 396.636719 569.714844 395.484375 569.828125 394.324219 C 569.941406 393.164062 569.996094 392 569.996094 390.832031 C 569.996094 389.667969 569.941406 388.503906 569.828125 387.34375 C 569.714844 386.183594 569.542969 385.03125 569.316406 383.886719 C 569.089844 382.742188 568.808594 381.609375 568.472656 380.496094 C 568.136719 379.378906 567.746094 378.28125 567.304688 377.203125 C 566.859375 376.121094 566.363281 375.066406 565.820312 374.039062 C 565.273438 373.007812 564.675781 372.007812 564.03125 371.035156 C 563.386719 370.0625 562.699219 369.125 561.960938 368.21875 C 561.226562 367.3125 560.449219 366.445312 559.628906 365.617188 C 558.808594 364.789062 557.949219 364.003906 557.050781 363.257812 C 556.152344 362.511719 555.222656 361.8125 554.257812 361.160156 C 553.289062 360.503906 552.296875 359.898438 551.269531 359.34375 C 550.246094 358.785156 549.195312 358.28125 548.121094 357.824219 C 547.046875 357.371094 545.953125 356.96875 544.839844 356.621094 C 543.726562 356.273438 542.601562 355.980469 541.460938 355.746094 C 540.316406 355.507812 539.167969 355.324219 538.007812 355.199219 C 536.847656 355.074219 535.683594 355.007812 534.519531 354.996094 C 533.351562 355.007812 532.191406 355.074219 531.03125 355.199219 C 529.871094 355.324219 528.71875 355.507812 527.578125 355.746094 C 526.4375 355.980469 525.308594 356.273438 524.195312 356.621094 C 523.082031 356.96875 521.988281 357.371094 520.914062 357.824219 C 519.839844 358.28125 518.792969 358.785156 517.765625 359.34375 C 516.742188 359.898438 515.746094 360.503906 514.78125 361.160156 C 513.816406 361.8125 512.882812 362.511719 511.988281 363.257812 C 511.089844 364.003906 510.230469 364.789062 509.410156 365.617188 C 508.589844 366.445312 507.8125 367.3125 507.074219 368.21875 C 506.339844 369.125 505.648438 370.0625 505.003906 371.035156 C 504.359375 372.007812 503.765625 373.007812 503.21875 374.039062 C 502.671875 375.066406 502.175781 376.121094 501.734375 377.203125 C 501.289062 378.28125 500.898438 379.378906 500.5625 380.496094 C 500.226562 381.609375 499.945312 382.742188 499.71875 383.886719 C 499.492188 385.03125 499.324219 386.183594 499.210938 387.34375 C 499.097656 388.503906 499.039062 389.667969 499.039062 390.832031 C 499.039062 392 499.097656 393.164062 499.210938 394.324219 C 499.324219 395.484375 499.492188 396.636719 499.71875 397.78125 C 499.945312 398.925781 500.226562 400.054688 500.5625 401.171875 C 500.902344 402.289062 501.289062 403.386719 501.734375 404.464844 C 502.175781 405.542969 502.671875 406.597656 503.21875 407.628906 C 503.765625 408.660156 504.359375 409.660156 505.003906 410.632812 C 505.648438 411.605469 506.339844 412.542969 507.074219 413.449219 C 507.8125 414.351562 508.589844 415.21875 509.410156 416.046875 C 510.230469 416.878906 511.089844 417.664062 511.988281 418.410156 C 512.882812 419.152344 513.816406 419.855469 514.78125 420.507812 C 515.746094 421.160156 516.742188 421.765625 517.765625 422.324219 C 518.792969 422.882812 519.839844 423.386719 520.914062 423.839844 C 521.988281 424.296875 523.082031 424.695312 524.195312 425.042969 C 525.308594 425.390625 526.4375 425.683594 527.578125 425.921875 C 528.71875 426.160156 529.871094 426.339844 531.03125 426.464844 C 532.191406 426.59375 533.351562 426.660156 534.519531 426.671875 Z M 534.519531 376.421875 C 535.457031 376.4375 536.382812 376.542969 537.296875 376.742188 C 538.210938 376.9375 539.101562 377.21875 539.960938 377.589844 C 540.820312 377.957031 541.636719 378.40625 542.410156 378.933594 C 543.183594 379.460938 543.898438 380.0625 544.554688 380.726562 C 545.210938 381.394531 545.796875 382.121094 546.3125 382.902344 C 546.828125 383.683594 547.261719 384.507812 547.617188 385.375 C 547.972656 386.242188 548.238281 387.132812 548.417969 388.050781 C 548.601562 388.96875 548.691406 389.898438 548.691406 390.832031 C 548.691406 391.769531 548.601562 392.695312 548.417969 393.617188 C 548.238281 394.535156 547.96875 395.425781 547.617188 396.292969 C 547.261719 397.160156 546.828125 397.984375 546.3125 398.765625 C 545.796875 399.546875 545.210938 400.273438 544.554688 400.9375 C 543.898438 401.605469 543.183594 402.203125 542.410156 402.734375 C 541.636719 403.261719 540.820312 403.710938 539.960938 404.078125 C 539.097656 404.449219 538.210938 404.730469 537.296875 404.925781 C 536.378906 405.121094 535.453125 405.226562 534.519531 405.242188 C 533.582031 405.226562 532.65625 405.121094 531.742188 404.925781 C 530.824219 404.730469 529.9375 404.449219 529.078125 404.078125 C 528.21875 403.710938 527.402344 403.261719 526.628906 402.730469 C 525.855469 402.203125 525.140625 401.605469 524.484375 400.9375 C 523.828125 400.269531 523.242188 399.546875 522.726562 398.765625 C 522.210938 397.984375 521.777344 397.160156 521.421875 396.292969 C 521.066406 395.425781 520.800781 394.535156 520.617188 393.613281 C 520.4375 392.695312 520.347656 391.769531 520.347656 390.832031 C 520.347656 389.898438 520.4375 388.96875 520.617188 388.050781 C 520.800781 387.132812 521.066406 386.238281 521.421875 385.375 C 521.777344 384.507812 522.210938 383.683594 522.726562 382.902344 C 523.242188 382.121094 523.828125 381.394531 524.484375 380.726562 C 525.140625 380.058594 525.855469 379.460938 526.628906 378.933594 C 527.402344 378.40625 528.21875 377.957031 529.078125 377.589844 C 529.9375 377.21875 530.828125 376.9375 531.742188 376.742188 C 532.65625 376.542969 533.582031 376.4375 534.519531 376.421875 Z M 534.519531 376.421875 "></path><path style=" stroke:none;fill-rule:nonzero;fill:#eb6938;fill-opacity:1;" d="M 217.003906 354.996094 C 215.835938 355.003906 214.671875 355.074219 213.511719 355.195312 C 212.351562 355.320312 211.203125 355.5 210.058594 355.738281 C 208.914062 355.976562 207.789062 356.265625 206.671875 356.613281 C 205.558594 356.960938 204.464844 357.363281 203.390625 357.816406 C 202.3125 358.269531 201.261719 358.773438 200.238281 359.332031 C 199.210938 359.886719 198.214844 360.492188 197.25 361.148438 C 196.28125 361.800781 195.351562 362.5 194.453125 363.246094 C 193.554688 363.988281 192.695312 364.777344 191.871094 365.605469 C 191.050781 366.433594 190.273438 367.300781 189.535156 368.207031 C 188.796875 369.113281 188.109375 370.050781 187.460938 371.023438 C 186.816406 371.996094 186.222656 372.996094 185.675781 374.027344 C 185.125 375.058594 184.632812 376.113281 184.1875 377.195312 C 183.742188 378.273438 183.351562 379.371094 183.015625 380.488281 C 182.679688 381.605469 182.398438 382.738281 182.171875 383.882812 C 181.945312 385.027344 181.773438 386.179688 181.660156 387.339844 C 181.546875 388.503906 181.488281 389.667969 181.488281 390.832031 C 181.488281 392 181.546875 393.164062 181.660156 394.328125 C 181.773438 395.488281 181.945312 396.640625 182.171875 397.785156 C 182.398438 398.929688 182.679688 400.0625 183.015625 401.179688 C 183.351562 402.296875 183.742188 403.394531 184.1875 404.472656 C 184.632812 405.554688 185.128906 406.609375 185.675781 407.640625 C 186.222656 408.667969 186.816406 409.671875 187.460938 410.644531 C 188.109375 411.617188 188.796875 412.554688 189.535156 413.460938 C 190.273438 414.367188 191.050781 415.234375 191.871094 416.0625 C 192.695312 416.890625 193.554688 417.675781 194.453125 418.421875 C 195.351562 419.167969 196.28125 419.867188 197.25 420.519531 C 198.214844 421.175781 199.210938 421.78125 200.238281 422.335938 C 201.265625 422.894531 202.316406 423.398438 203.390625 423.851562 C 204.464844 424.304688 205.558594 424.707031 206.671875 425.054688 C 207.789062 425.402344 208.917969 425.691406 210.058594 425.929688 C 211.203125 426.164062 212.351562 426.347656 213.515625 426.46875 C 214.675781 426.59375 215.835938 426.664062 217.003906 426.671875 C 218.171875 426.664062 219.335938 426.59375 220.496094 426.46875 C 221.65625 426.347656 222.808594 426.164062 223.949219 425.929688 C 225.09375 425.691406 226.222656 425.398438 227.335938 425.054688 C 228.449219 424.707031 229.542969 424.304688 230.621094 423.851562 C 231.695312 423.398438 232.746094 422.894531 233.769531 422.335938 C 234.796875 421.78125 235.792969 421.175781 236.757812 420.519531 C 237.726562 419.867188 238.660156 419.167969 239.558594 418.421875 C 240.457031 417.675781 241.316406 416.890625 242.136719 416.0625 C 242.957031 415.230469 243.738281 414.367188 244.472656 413.460938 C 245.210938 412.554688 245.902344 411.617188 246.546875 410.644531 C 247.191406 409.671875 247.789062 408.667969 248.335938 407.640625 C 248.882812 406.609375 249.378906 405.554688 249.820312 404.472656 C 250.265625 403.394531 250.65625 402.296875 250.992188 401.179688 C 251.328125 400.0625 251.613281 398.929688 251.839844 397.785156 C 252.0625 396.640625 252.234375 395.488281 252.347656 394.328125 C 252.460938 393.164062 252.519531 392 252.519531 390.832031 C 252.519531 389.667969 252.460938 388.503906 252.347656 387.339844 C 252.234375 386.179688 252.0625 385.027344 251.839844 383.882812 C 251.613281 382.738281 251.328125 381.605469 250.992188 380.488281 C 250.65625 379.371094 250.265625 378.273438 249.820312 377.195312 C 249.378906 376.113281 248.882812 375.058594 248.335938 374.027344 C 247.789062 372.996094 247.191406 371.996094 246.546875 371.023438 C 245.902344 370.050781 245.210938 369.113281 244.472656 368.207031 C 243.738281 367.300781 242.957031 366.433594 242.136719 365.605469 C 241.316406 364.777344 240.453125 363.988281 239.554688 363.246094 C 238.65625 362.5 237.726562 361.800781 236.757812 361.148438 C 235.792969 360.492188 234.796875 359.886719 233.769531 359.332031 C 232.746094 358.773438 231.695312 358.269531 230.621094 357.816406 C 229.542969 357.363281 228.449219 356.960938 227.335938 356.613281 C 226.222656 356.265625 225.09375 355.976562 223.949219 355.738281 C 222.808594 355.5 221.65625 355.320312 220.496094 355.195312 C 219.335938 355.074219 218.171875 355.003906 217.003906 354.996094 Z M 217.003906 405.242188 C 216.066406 405.226562 215.140625 405.121094 214.226562 404.925781 C 213.3125 404.730469 212.421875 404.449219 211.5625 404.078125 C 210.703125 403.710938 209.886719 403.261719 209.113281 402.730469 C 208.339844 402.203125 207.625 401.605469 206.96875 400.9375 C 206.3125 400.269531 205.726562 399.546875 205.210938 398.765625 C 204.695312 397.984375 204.261719 397.160156 203.90625 396.292969 C 203.550781 395.425781 203.285156 394.535156 203.105469 393.613281 C 202.921875 392.695312 202.832031 391.769531 202.832031 390.832031 C 202.832031 389.898438 202.921875 388.96875 203.105469 388.050781 C 203.285156 387.132812 203.554688 386.238281 203.90625 385.375 C 204.261719 384.507812 204.695312 383.683594 205.210938 382.902344 C 205.726562 382.121094 206.3125 381.394531 206.96875 380.726562 C 207.625 380.058594 208.339844 379.460938 209.113281 378.933594 C 209.886719 378.40625 210.703125 377.957031 211.5625 377.589844 C 212.425781 377.21875 213.3125 376.9375 214.226562 376.742188 C 215.144531 376.542969 216.070312 376.4375 217.003906 376.421875 C 217.941406 376.4375 218.867188 376.542969 219.78125 376.742188 C 220.695312 376.9375 221.585938 377.21875 222.445312 377.589844 C 223.304688 377.957031 224.121094 378.40625 224.894531 378.933594 C 225.667969 379.460938 226.382812 380.0625 227.039062 380.726562 C 227.695312 381.394531 228.28125 382.121094 228.796875 382.902344 C 229.3125 383.683594 229.746094 384.507812 230.101562 385.375 C 230.457031 386.242188 230.722656 387.132812 230.90625 388.050781 C 231.085938 388.96875 231.175781 389.898438 231.175781 390.832031 C 231.175781 391.769531 231.085938 392.695312 230.902344 393.617188 C 230.722656 394.535156 230.457031 395.425781 230.101562 396.292969 C 229.746094 397.160156 229.3125 397.984375 228.796875 398.765625 C 228.28125 399.546875 227.695312 400.273438 227.039062 400.9375 C 226.382812 401.605469 225.667969 402.203125 224.894531 402.734375 C 224.121094 403.261719 223.304688 403.710938 222.445312 404.078125 C 221.585938 404.449219 220.695312 404.730469 219.78125 404.925781 C 218.867188 405.121094 217.941406 405.226562 217.003906 405.242188 Z M 217.003906 405.242188 "></path><g clip-rule="nonzero" clip-path="url(#38cac1052e)"><path style=" stroke:none;fill-rule:nonzero;fill:#eb6938;fill-opacity:1;" d="M 630.226562 653.570312 L 607.289062 653.570312 L 607.289062 331.230469 C 608.039062 331.386719 608.792969 331.503906 609.554688 331.585938 C 610.316406 331.664062 611.078125 331.707031 611.84375 331.710938 C 612.609375 331.714844 613.371094 331.679688 614.132812 331.609375 C 614.894531 331.535156 615.648438 331.425781 616.398438 331.28125 C 617.152344 331.132812 617.890625 330.949219 618.625 330.726562 C 619.355469 330.507812 620.074219 330.25 620.78125 329.957031 C 621.488281 329.664062 622.179688 329.339844 622.851562 328.976562 C 623.527344 328.617188 624.183594 328.222656 624.816406 327.796875 C 625.453125 327.371094 626.0625 326.914062 626.652344 326.425781 C 627.242188 325.9375 627.804688 325.421875 628.34375 324.878906 C 628.882812 324.335938 629.394531 323.765625 629.875 323.171875 C 630.355469 322.578125 630.808594 321.960938 631.226562 321.324219 C 631.648438 320.683594 632.035156 320.027344 632.390625 319.347656 C 632.746094 318.671875 633.066406 317.976562 633.351562 317.269531 C 633.636719 316.558594 633.886719 315.835938 634.101562 315.101562 C 634.3125 314.367188 634.492188 313.625 634.628906 312.875 L 640.710938 271.648438 C 640.816406 270.890625 640.882812 270.125 640.910156 269.359375 C 640.933594 268.589844 640.917969 267.824219 640.863281 267.058594 C 640.804688 266.292969 640.710938 265.53125 640.570312 264.777344 C 640.433594 264.019531 640.257812 263.273438 640.039062 262.539062 C 639.824219 261.800781 639.570312 261.078125 639.273438 260.367188 C 638.980469 259.660156 638.652344 258.96875 638.285156 258.292969 C 637.914062 257.617188 637.511719 256.964844 637.078125 256.335938 C 636.640625 255.703125 636.171875 255.097656 635.667969 254.515625 C 635.167969 253.933594 634.636719 253.378906 634.074219 252.855469 C 633.515625 252.332031 632.929688 251.835938 632.316406 251.375 C 631.703125 250.910156 631.066406 250.484375 630.40625 250.089844 C 629.75 249.695312 629.070312 249.335938 628.375 249.011719 C 627.675781 248.691406 626.964844 248.40625 626.238281 248.160156 C 625.511719 247.914062 624.773438 247.707031 624.023438 247.539062 C 623.273438 247.371094 622.519531 247.242188 621.753906 247.15625 C 620.992188 247.066406 620.226562 247.019531 619.460938 247.015625 L 576.601562 247.015625 L 576.601562 239.566406 C 576.601562 238.511719 576.546875 237.460938 576.445312 236.414062 C 576.339844 235.367188 576.183594 234.328125 575.976562 233.296875 C 575.773438 232.265625 575.515625 231.246094 575.210938 230.238281 C 574.902344 229.230469 574.550781 228.242188 574.144531 227.269531 C 573.742188 226.296875 573.292969 225.347656 572.796875 224.417969 C 572.300781 223.492188 571.757812 222.589844 571.175781 221.714844 C 570.589844 220.839844 569.960938 219.996094 569.296875 219.183594 C 568.628906 218.371094 567.921875 217.589844 567.175781 216.847656 C 566.433594 216.101562 565.652344 215.394531 564.839844 214.730469 C 564.027344 214.0625 563.183594 213.433594 562.308594 212.847656 C 561.433594 212.265625 560.53125 211.722656 559.605469 211.226562 C 558.675781 210.730469 557.726562 210.28125 556.753906 209.878906 C 555.78125 209.472656 554.792969 209.121094 553.785156 208.8125 C 552.777344 208.507812 551.757812 208.25 550.726562 208.046875 C 549.695312 207.839844 548.65625 207.683594 547.609375 207.578125 C 546.5625 207.476562 545.511719 207.421875 544.460938 207.421875 L 533.128906 207.421875 L 533.128906 156.539062 C 533.125 155.488281 533.074219 154.4375 532.96875 153.390625 C 532.867188 152.34375 532.710938 151.304688 532.503906 150.269531 C 532.296875 149.238281 532.042969 148.21875 531.734375 147.214844 C 531.429688 146.207031 531.074219 145.214844 530.671875 144.246094 C 530.269531 143.273438 529.820312 142.324219 529.320312 141.394531 C 528.824219 140.464844 528.285156 139.566406 527.699219 138.691406 C 527.113281 137.816406 526.488281 136.972656 525.820312 136.15625 C 525.152344 135.34375 524.445312 134.566406 523.703125 133.820312 C 522.957031 133.078125 522.179688 132.371094 521.367188 131.703125 C 520.554688 131.035156 519.707031 130.410156 518.835938 129.824219 C 517.960938 129.238281 517.058594 128.699219 516.128906 128.203125 C 515.203125 127.707031 514.253906 127.257812 513.28125 126.851562 C 512.308594 126.449219 511.320312 126.09375 510.3125 125.789062 C 509.304688 125.484375 508.285156 125.226562 507.253906 125.019531 C 506.222656 124.8125 505.179688 124.660156 504.132812 124.554688 C 503.085938 124.449219 502.039062 124.398438 500.984375 124.398438 L 466.351562 124.398438 C 463.742188 120.71875 460.929688 117.203125 457.917969 113.847656 C 454.902344 110.496094 451.707031 107.324219 448.324219 104.339844 C 444.945312 101.355469 441.40625 98.574219 437.707031 95.996094 C 434.003906 93.417969 430.167969 91.0625 426.199219 88.925781 C 422.226562 86.792969 418.144531 84.890625 413.953125 83.226562 C 409.761719 81.5625 405.492188 80.144531 401.136719 78.972656 C 396.78125 77.800781 392.375 76.882812 387.914062 76.21875 C 383.453125 75.554688 378.972656 75.148438 374.464844 75 C 369.949219 75.097656 365.453125 75.457031 360.980469 76.082031 C 356.507812 76.710938 352.085938 77.597656 347.71875 78.75 C 343.347656 79.898438 339.0625 81.300781 334.859375 82.957031 C 330.660156 84.613281 326.566406 86.507812 322.589844 88.648438 C 318.609375 90.789062 314.773438 93.152344 311.074219 95.746094 C 307.375 98.339844 303.84375 101.140625 300.472656 104.152344 C 297.105469 107.160156 293.929688 110.359375 290.9375 113.746094 C 287.949219 117.132812 285.167969 120.683594 282.597656 124.398438 L 247.945312 124.398438 C 246.890625 124.398438 245.839844 124.449219 244.792969 124.554688 C 243.746094 124.660156 242.707031 124.8125 241.675781 125.019531 C 240.644531 125.226562 239.625 125.480469 238.617188 125.789062 C 237.609375 126.09375 236.621094 126.449219 235.648438 126.851562 C 234.675781 127.257812 233.726562 127.707031 232.796875 128.203125 C 231.871094 128.699219 230.96875 129.238281 230.09375 129.824219 C 229.21875 130.410156 228.375 131.035156 227.5625 131.703125 C 226.75 132.371094 225.96875 133.078125 225.226562 133.820312 C 224.480469 134.566406 223.773438 135.34375 223.109375 136.15625 C 222.441406 136.972656 221.8125 137.816406 221.230469 138.691406 C 220.644531 139.566406 220.101562 140.464844 219.605469 141.394531 C 219.109375 142.324219 218.660156 143.273438 218.257812 144.246094 C 217.855469 145.214844 217.5 146.207031 217.191406 147.210938 C 216.886719 148.21875 216.628906 149.238281 216.425781 150.269531 C 216.21875 151.304688 216.0625 152.34375 215.957031 153.390625 C 215.855469 154.4375 215.800781 155.488281 215.800781 156.539062 L 215.800781 207.421875 L 204.46875 207.421875 C 203.417969 207.421875 202.367188 207.476562 201.320312 207.578125 C 200.273438 207.683594 199.234375 207.839844 198.199219 208.046875 C 197.167969 208.25 196.148438 208.507812 195.140625 208.8125 C 194.136719 209.121094 193.144531 209.472656 192.175781 209.878906 C 191.203125 210.28125 190.253906 210.730469 189.324219 211.226562 C 188.394531 211.722656 187.496094 212.265625 186.621094 212.847656 C 185.746094 213.433594 184.902344 214.0625 184.085938 214.726562 C 183.273438 215.394531 182.496094 216.101562 181.75 216.847656 C 181.007812 217.589844 180.300781 218.371094 179.632812 219.183594 C 178.964844 219.996094 178.339844 220.839844 177.753906 221.714844 C 177.167969 222.589844 176.628906 223.492188 176.132812 224.417969 C 175.636719 225.347656 175.1875 226.296875 174.78125 227.269531 C 174.378906 228.242188 174.023438 229.230469 173.71875 230.238281 C 173.410156 231.246094 173.15625 232.265625 172.949219 233.296875 C 172.742188 234.328125 172.589844 235.367188 172.484375 236.414062 C 172.378906 237.460938 172.328125 238.511719 172.328125 239.566406 L 172.328125 247.015625 L 129.46875 247.015625 C 128.703125 247.019531 127.9375 247.066406 127.171875 247.15625 C 126.410156 247.242188 125.65625 247.371094 124.90625 247.539062 C 124.15625 247.707031 123.417969 247.914062 122.691406 248.160156 C 121.964844 248.40625 121.253906 248.691406 120.554688 249.011719 C 119.859375 249.335938 119.179688 249.695312 118.523438 250.089844 C 117.863281 250.484375 117.226562 250.910156 116.613281 251.375 C 116 251.835938 115.414062 252.328125 114.855469 252.855469 C 114.292969 253.378906 113.761719 253.933594 113.261719 254.511719 C 112.761719 255.09375 112.289062 255.699219 111.855469 256.332031 C 111.417969 256.964844 111.015625 257.617188 110.648438 258.289062 C 110.28125 258.964844 109.949219 259.65625 109.65625 260.367188 C 109.363281 261.074219 109.105469 261.796875 108.890625 262.535156 C 108.671875 263.269531 108.496094 264.015625 108.359375 264.773438 C 108.222656 265.527344 108.125 266.289062 108.066406 267.054688 C 108.011719 267.820312 107.996094 268.585938 108.019531 269.351562 C 108.046875 270.121094 108.113281 270.882812 108.21875 271.644531 L 114.296875 312.863281 C 114.4375 313.617188 114.613281 314.359375 114.828125 315.09375 C 115.039062 315.828125 115.289062 316.550781 115.574219 317.261719 C 115.859375 317.96875 116.179688 318.664062 116.535156 319.34375 C 116.890625 320.019531 117.277344 320.679688 117.695312 321.316406 C 118.117188 321.957031 118.566406 322.574219 119.050781 323.167969 C 119.53125 323.761719 120.039062 324.332031 120.578125 324.875 C 121.117188 325.421875 121.679688 325.9375 122.269531 326.421875 C 122.859375 326.910156 123.472656 327.367188 124.105469 327.792969 C 124.742188 328.222656 125.398438 328.613281 126.070312 328.976562 C 126.746094 329.339844 127.4375 329.664062 128.144531 329.957031 C 128.847656 330.25 129.570312 330.507812 130.300781 330.726562 C 131.035156 330.949219 131.773438 331.132812 132.527344 331.28125 C 133.277344 331.429688 134.03125 331.539062 134.792969 331.609375 C 135.554688 331.679688 136.320312 331.714844 137.085938 331.710938 C 137.847656 331.707031 138.613281 331.664062 139.375 331.585938 C 140.132812 331.503906 140.890625 331.386719 141.636719 331.230469 L 141.636719 653.570312 L 118.703125 653.570312 C 118.007812 653.582031 117.316406 653.660156 116.636719 653.808594 C 115.957031 653.953125 115.296875 654.164062 114.65625 654.4375 C 114.015625 654.710938 113.410156 655.046875 112.835938 655.4375 C 112.261719 655.832031 111.730469 656.277344 111.242188 656.773438 C 110.753906 657.269531 110.316406 657.808594 109.933594 658.386719 C 109.550781 658.96875 109.226562 659.582031 108.964844 660.226562 C 108.699219 660.871094 108.5 661.535156 108.367188 662.21875 C 108.234375 662.902344 108.167969 663.589844 108.167969 664.285156 C 108.167969 664.980469 108.234375 665.671875 108.367188 666.355469 C 108.503906 667.039062 108.703125 667.703125 108.964844 668.34375 C 109.230469 668.988281 109.550781 669.601562 109.933594 670.183594 C 110.316406 670.765625 110.753906 671.304688 111.242188 671.800781 C 111.730469 672.296875 112.261719 672.742188 112.835938 673.132812 C 113.410156 673.527344 114.019531 673.859375 114.65625 674.132812 C 115.296875 674.410156 115.957031 674.617188 116.636719 674.765625 C 117.320312 674.910156 118.007812 674.988281 118.703125 675 C 139.800781 674.792969 254.683594 675.128906 278.421875 674.988281 C 329.984375 675.007812 418.945312 674.976562 470.507812 674.988281 C 494.566406 674.925781 608.34375 675.035156 630.226562 675 C 630.921875 674.992188 631.613281 674.914062 632.296875 674.769531 C 632.976562 674.625 633.640625 674.417969 634.28125 674.144531 C 634.921875 673.871094 635.53125 673.535156 636.109375 673.144531 C 636.6875 672.753906 637.21875 672.308594 637.710938 671.8125 C 638.199219 671.316406 638.636719 670.773438 639.019531 670.195312 C 639.40625 669.613281 639.730469 668.996094 639.996094 668.351562 C 640.257812 667.707031 640.460938 667.042969 640.59375 666.359375 C 640.730469 665.675781 640.796875 664.984375 640.796875 664.285156 C 640.796875 663.589844 640.730469 662.898438 640.59375 662.214844 C 640.457031 661.527344 640.257812 660.863281 639.996094 660.21875 C 639.730469 659.574219 639.40625 658.960938 639.019531 658.378906 C 638.636719 657.796875 638.199219 657.257812 637.707031 656.761719 C 637.21875 656.265625 636.6875 655.820312 636.109375 655.425781 C 635.53125 655.035156 634.921875 654.703125 634.28125 654.429688 C 633.640625 654.15625 632.976562 653.945312 632.296875 653.800781 C 631.613281 653.65625 630.921875 653.582031 630.226562 653.570312 Z M 374.464844 96.429688 C 380.460938 96.726562 386.382812 97.554688 392.234375 98.917969 C 398.082031 100.285156 403.757812 102.160156 409.269531 104.546875 C 414.777344 106.9375 420.03125 109.796875 425.023438 113.132812 C 430.015625 116.46875 434.671875 120.222656 438.988281 124.398438 L 310.699219 124.398438 C 312.75 122.230469 314.902344 120.171875 317.160156 118.222656 C 319.417969 116.273438 321.765625 114.441406 324.203125 112.722656 C 326.640625 111.007812 329.160156 109.417969 331.757812 107.953125 C 334.355469 106.492188 337.023438 105.160156 339.753906 103.960938 C 342.484375 102.765625 345.269531 101.707031 348.105469 100.785156 C 350.941406 99.867188 353.816406 99.089844 356.730469 98.457031 C 359.644531 97.824219 362.585938 97.339844 365.546875 97 C 368.511719 96.660156 371.480469 96.46875 374.464844 96.429688 Z M 237.230469 156.539062 C 237.230469 155.835938 237.300781 155.140625 237.4375 154.449219 C 237.574219 153.761719 237.777344 153.089844 238.046875 152.441406 C 238.316406 151.792969 238.648438 151.175781 239.039062 150.589844 C 239.429688 150.003906 239.875 149.464844 240.371094 148.964844 C 240.867188 148.46875 241.410156 148.023438 241.992188 147.632812 C 242.578125 147.242188 243.195312 146.914062 243.84375 146.644531 C 244.496094 146.375 245.164062 146.171875 245.855469 146.03125 C 246.542969 145.894531 247.242188 145.824219 247.945312 145.824219 L 500.984375 145.824219 C 501.6875 145.824219 502.382812 145.894531 503.074219 146.03125 C 503.765625 146.171875 504.433594 146.375 505.082031 146.644531 C 505.734375 146.914062 506.351562 147.242188 506.933594 147.632812 C 507.519531 148.023438 508.0625 148.46875 508.558594 148.964844 C 509.054688 149.464844 509.5 150.003906 509.890625 150.589844 C 510.28125 151.175781 510.609375 151.792969 510.878906 152.441406 C 511.148438 153.089844 511.355469 153.761719 511.492188 154.449219 C 511.628906 155.140625 511.699219 155.835938 511.699219 156.539062 L 511.699219 207.421875 L 237.230469 207.421875 Z M 193.753906 239.566406 C 193.753906 238.859375 193.824219 238.164062 193.960938 237.476562 C 194.101562 236.785156 194.304688 236.117188 194.574219 235.464844 C 194.84375 234.816406 195.171875 234.199219 195.5625 233.613281 C 195.953125 233.03125 196.398438 232.488281 196.894531 231.992188 C 197.394531 231.496094 197.933594 231.050781 198.519531 230.660156 C 199.105469 230.269531 199.722656 229.9375 200.371094 229.667969 C 201.019531 229.398438 201.691406 229.195312 202.378906 229.058594 C 203.070312 228.921875 203.765625 228.851562 204.46875 228.851562 L 544.460938 228.851562 C 545.164062 228.851562 545.859375 228.921875 546.550781 229.058594 C 547.238281 229.195312 547.910156 229.398438 548.558594 229.667969 C 549.207031 229.9375 549.824219 230.269531 550.410156 230.660156 C 550.992188 231.050781 551.535156 231.496094 552.03125 231.992188 C 552.53125 232.488281 552.972656 233.03125 553.363281 233.613281 C 553.753906 234.199219 554.085938 234.816406 554.355469 235.464844 C 554.625 236.117188 554.828125 236.785156 554.964844 237.476562 C 555.105469 238.164062 555.171875 238.859375 555.171875 239.566406 L 555.171875 247.015625 L 193.753906 247.015625 Z M 135.496094 309.746094 L 129.46875 268.441406 L 619.511719 268.515625 L 613.402344 309.804688 Z M 385.386719 436.132812 C 378.105469 434.84375 370.824219 434.835938 363.539062 436.113281 L 363.539062 401.578125 L 385.386719 401.578125 Z M 396.101562 380.148438 C 372.546875 380.136719 323.707031 380.15625 299.957031 380.148438 C 298.898438 380.148438 297.847656 380.203125 296.792969 380.308594 C 295.742188 380.414062 294.699219 380.570312 293.664062 380.777344 C 292.628906 380.984375 291.605469 381.242188 290.59375 381.550781 C 289.585938 381.859375 288.59375 382.214844 287.617188 382.621094 C 286.640625 383.023438 285.6875 383.476562 284.757812 383.976562 C 283.824219 384.476562 282.921875 385.019531 282.042969 385.605469 C 281.164062 386.191406 280.320312 386.824219 279.503906 387.492188 C 278.6875 388.164062 277.90625 388.871094 277.160156 389.621094 C 276.410156 390.367188 275.703125 391.148438 275.035156 391.964844 C 274.363281 392.78125 273.734375 393.628906 273.148438 394.507812 C 272.5625 395.386719 272.019531 396.292969 271.523438 397.222656 C 271.023438 398.15625 270.574219 399.109375 270.167969 400.085938 C 269.765625 401.058594 269.410156 402.054688 269.101562 403.066406 C 268.796875 404.074219 268.539062 405.097656 268.332031 406.132812 C 268.125 407.171875 267.96875 408.214844 267.867188 409.265625 C 267.761719 410.316406 267.710938 411.371094 267.707031 412.425781 L 267.707031 467.90625 L 163.066406 467.90625 L 163.066406 331.285156 L 585.863281 331.285156 L 585.863281 467.90625 L 481.21875 467.90625 L 481.21875 412.425781 C 481.21875 411.371094 481.167969 410.316406 481.0625 409.265625 C 480.957031 408.214844 480.804688 407.171875 480.597656 406.136719 C 480.390625 405.097656 480.132812 404.074219 479.828125 403.066406 C 479.519531 402.054688 479.164062 401.0625 478.757812 400.085938 C 478.355469 399.109375 477.902344 398.15625 477.40625 397.222656 C 476.90625 396.292969 476.367188 395.386719 475.777344 394.507812 C 475.191406 393.628906 474.5625 392.785156 473.894531 391.964844 C 473.222656 391.148438 472.515625 390.367188 471.769531 389.621094 C 471.023438 388.875 470.242188 388.164062 469.425781 387.492188 C 468.609375 386.824219 467.761719 386.195312 466.882812 385.605469 C 466.007812 385.019531 465.101562 384.476562 464.171875 383.976562 C 463.242188 383.476562 462.285156 383.027344 461.3125 382.621094 C 460.335938 382.214844 459.34375 381.859375 458.332031 381.550781 C 457.324219 381.242188 456.300781 380.984375 455.261719 380.777344 C 454.226562 380.570312 453.183594 380.414062 452.132812 380.308594 C 451.082031 380.203125 450.027344 380.148438 448.972656 380.148438 Z M 267.707031 554.15625 L 163.066406 554.15625 L 163.066406 532.460938 L 267.707031 532.460938 Z M 267.707031 511.03125 L 163.066406 511.03125 L 163.066406 489.335938 L 267.707031 489.335938 Z M 163.066406 575.585938 L 267.707031 575.585938 L 267.707031 597.285156 L 163.066406 597.285156 Z M 481.21875 489.335938 L 585.863281 489.335938 L 585.863281 511.03125 L 481.21875 511.03125 Z M 481.21875 532.460938 L 585.863281 532.460938 L 585.863281 554.15625 L 481.21875 554.15625 Z M 481.21875 575.585938 L 585.863281 575.585938 L 585.863281 597.285156 L 481.21875 597.285156 Z M 163.066406 618.714844 L 267.707031 618.714844 L 267.707031 653.5625 L 163.066406 653.5625 Z M 289.136719 412.425781 C 289.136719 411.714844 289.207031 411.011719 289.34375 410.3125 C 289.484375 409.617188 289.6875 408.9375 289.960938 408.28125 C 290.230469 407.625 290.5625 407 290.957031 406.40625 C 291.351562 405.816406 291.800781 405.269531 292.304688 404.765625 C 292.804688 404.261719 293.351562 403.8125 293.941406 403.414062 C 294.53125 403.019531 295.15625 402.683594 295.8125 402.410156 C 296.46875 402.136719 297.144531 401.929688 297.84375 401.789062 C 298.539062 401.648438 299.246094 401.578125 299.957031 401.578125 L 342.113281 401.578125 L 342.113281 444.226562 C 339.789062 445.613281 337.566406 447.144531 335.441406 448.816406 C 333.320312 450.492188 331.3125 452.296875 329.417969 454.230469 C 327.527344 456.164062 325.769531 458.210938 324.144531 460.371094 C 322.515625 462.53125 321.035156 464.789062 319.703125 467.140625 C 318.367188 469.496094 317.191406 471.921875 316.167969 474.429688 C 315.148438 476.933594 314.292969 479.492188 313.605469 482.109375 C 312.914062 484.722656 312.394531 487.371094 312.046875 490.054688 C 311.699219 492.738281 311.527344 495.429688 311.527344 498.136719 L 311.527344 653.5625 L 289.136719 653.5625 Z M 332.957031 653.5625 C 333.027344 615.355469 332.90625 535.847656 332.957031 498.136719 C 332.957031 496.777344 333.023438 495.421875 333.15625 494.066406 C 333.289062 492.714844 333.488281 491.371094 333.753906 490.039062 C 334.019531 488.703125 334.351562 487.386719 334.746094 486.085938 C 335.140625 484.785156 335.597656 483.507812 336.117188 482.25 C 336.636719 480.996094 337.21875 479.769531 337.859375 478.570312 C 338.5 477.371094 339.195312 476.207031 339.953125 475.074219 C 340.707031 473.945312 341.515625 472.855469 342.378906 471.804688 C 343.242188 470.753906 344.152344 469.746094 345.113281 468.785156 C 346.074219 467.824219 347.082031 466.914062 348.132812 466.050781 C 349.183594 465.1875 350.273438 464.378906 351.402344 463.625 C 352.535156 462.867188 353.699219 462.171875 354.898438 461.53125 C 356.097656 460.890625 357.324219 460.308594 358.582031 459.789062 C 359.835938 459.269531 361.113281 458.808594 362.414062 458.414062 C 363.714844 458.019531 365.035156 457.691406 366.367188 457.425781 C 367.699219 457.160156 369.042969 456.960938 370.394531 456.828125 C 371.75 456.695312 373.105469 456.628906 374.464844 456.628906 C 375.824219 456.628906 377.179688 456.695312 378.53125 456.828125 C 379.886719 456.960938 381.230469 457.160156 382.5625 457.425781 C 383.894531 457.691406 385.210938 458.019531 386.511719 458.414062 C 387.8125 458.808594 389.09375 459.269531 390.347656 459.789062 C 391.605469 460.308594 392.832031 460.890625 394.03125 461.53125 C 395.230469 462.171875 396.394531 462.867188 397.523438 463.625 C 398.65625 464.378906 399.746094 465.1875 400.796875 466.050781 C 401.847656 466.914062 402.851562 467.824219 403.8125 468.785156 C 404.777344 469.746094 405.6875 470.753906 406.550781 471.804688 C 407.414062 472.855469 408.222656 473.945312 408.976562 475.074219 C 409.730469 476.207031 410.429688 477.371094 411.070312 478.570312 C 411.710938 479.769531 412.292969 480.996094 412.8125 482.25 C 413.332031 483.507812 413.789062 484.785156 414.183594 486.085938 C 414.578125 487.386719 414.910156 488.703125 415.171875 490.039062 C 415.4375 491.371094 415.636719 492.714844 415.773438 494.066406 C 415.90625 495.421875 415.972656 496.777344 415.972656 498.136719 L 415.972656 653.5625 Z M 437.398438 653.5625 L 437.398438 498.136719 C 437.410156 494 437.019531 489.902344 436.21875 485.84375 C 435.417969 481.785156 434.226562 477.84375 432.644531 474.019531 C 431.0625 470.199219 429.121094 466.566406 426.820312 463.128906 C 424.519531 459.691406 421.90625 456.511719 418.972656 453.59375 C 415.3125 449.996094 411.257812 446.910156 406.816406 444.335938 L 406.816406 401.578125 L 448.972656 401.578125 C 449.683594 401.578125 450.386719 401.648438 451.085938 401.789062 C 451.78125 401.929688 452.460938 402.136719 453.117188 402.410156 C 453.773438 402.683594 454.394531 403.019531 454.988281 403.414062 C 455.578125 403.8125 456.125 404.261719 456.625 404.765625 C 457.128906 405.269531 457.574219 405.816406 457.96875 406.40625 C 458.363281 407 458.699219 407.625 458.96875 408.28125 C 459.242188 408.9375 459.445312 409.617188 459.585938 410.3125 C 459.722656 411.011719 459.792969 411.714844 459.792969 412.425781 L 459.792969 653.5625 Z M 481.21875 653.5625 L 481.21875 618.714844 L 585.863281 618.714844 L 585.863281 653.5625 Z M 481.21875 653.5625 "></path></g></g></svg>